{"title":"The Grey 2012 - XViD - INSPiRAL","uid":7011048,"size":1317495532,"categoryP":"video","categoryS":"movies","magnet":"?xt=urn:btih:e305b3dacc70ed2e368b74a0309c4ac04f02a83a&amp;dn=The+Grey+2012+-+XViD+-+INSPiRAL&amp;tr=udp%3A%2F%2Ftracker.openbittorrent.com%3A80&amp;tr=udp%3A%2F%2Fopen.demonii.com%3A1337&amp;tr=udp%3A%2F%2Ftracker.coppersurfer.tk%3A6969&amp;tr=udp%3A%2F%2Fexodus.desync.com%3A6969","seeders":0,"leechers":0,"uploader":"tlg7312","files":-1,"time":1328457201,"description":"The Grey 2012 - XViD - INSPiRAL\n\n---------------------------------------------------------------------------\n\nSOURCES:\n\nVIDEO - Lum1x THANKS\nAUDIO - eggy THANKS\nSUBS  - None Add\n\nSTATS:\n\nVideo\nID                               : 0\nFormat                           : MPEG-4 Visual\nFormat profile                   : Advanced Simple@L5\nFormat settings, BVOP            : 1\nFormat settings, QPel            : No\nFormat settings, GMC             : No warppoints\nFormat settings, Matrix          : Default (MPEG)\nMuxing mode                      : Packed bitstream\nCodec ID                         : XVID\nCodec ID/Hint                    : XviD\nDuration                         : 1h 35mn\nBit rate                         : 1 678 Kbps\nWidth                            : 720 pixels\nHeight                           : 272 pixels\nDisplay aspect ratio             : 2.647\nFrame rate                       : 25.000 fps\nColor space                      : YUV\nChroma subsampling               : 4:2:0\nBit depth                        : 8 bits\nScan type                        : Progressive\nCompression mode                 : Lossy\nBits/(Pixel*Frame)               : 0.343\nStream size                      : 1.12 GiB (92%)\nWriting library                  : XviD 64\n\nAudio\nID                               : 1\nFormat                           : MPEG Audio\nFormat version                   : Version 1\nFormat profile                   : Layer 3\nCodec ID                         : 55\nCodec ID/Hint                    : MP3\nDuration                         : 1h 35mn\nBit rate mode                    : Constant\nBit rate                         : 128 Kbps\nChannel(s)                       : 2 channels\nSampling rate                    : 44.1 KHz\nCompression mode                 : Lossy\nStream size                      : 87.6 MiB (7%)\nAlignment                        : Split accross interleaves\nInterleave, duration             : 40 ms (1.00 video frame)\nInterleave, preload duration     : 500 ms","torrent":{"xt":"urn:btih:e305b3dacc70ed2e368b74a0309c4ac04f02a83a","amp;dn":"The+Grey+2012+-+XViD+-+INSPiRAL","amp;tr":["udp%3A%2F%2Ftracker.openbittorrent.com%3A80","udp%3A%2F%2Fopen.demonii.com%3A1337","udp%3A%2F%2Ftracker.coppersurfer.tk%3A6969","udp%3A%2F%2Fexodus.desync.com%3A6969"],"infoHash":"e305b3dacc70ed2e368b74a0309c4ac04f02a83a","infoHashBuffer":{"type":"Buffer","data":[227,5,179,218,204,112,237,46,54,139,116,160,48,156,74,192,79,2,168,58]},"announce":[],"urlList":[]}}